<svg width="130" height="56" viewBox="0 0 130 56" fill="none" xmlns="http://www.w3.org/2000/svg">
<g clip-path="url(#clip0_46_338)">
<path d="M0 36.3222V13.8204H4.51346V36.32H0V36.3222ZM2.22011 36.3222V32.7773H9.13449C10.5673 32.7773 11.7551 32.4704 12.6981 31.8564C13.6411 31.2425 14.346 30.3671 14.8106 29.2324C15.2776 28.0955 15.5087 26.7335 15.5087 25.1418C15.5087 23.8002 15.36 22.6428 15.0601 21.6651C14.7603 20.6873 14.314 19.887 13.7166 19.2617C13.1192 18.6363 12.3662 18.1657 11.4599 17.8473C10.5512 17.529 9.48925 17.3698 8.27162 17.3698H2.22011V13.8249H8.13201C10.9266 13.8249 13.2131 14.2683 14.9915 15.1551C16.7698 16.0419 18.0836 17.3084 18.9327 18.957C19.7796 20.6055 20.2053 22.5883 20.2053 24.9053C20.2053 26.5425 20.0016 27.9909 19.5965 29.2529C19.1891 30.5149 18.6421 31.5949 17.9486 32.4908C17.2551 33.389 16.4448 34.1212 15.5133 34.6896C14.5818 35.2581 13.5839 35.6742 12.5219 35.9334C11.4599 36.1949 10.3659 36.3245 9.24435 36.3245H2.22011V36.3222Z" fill="#3B3542"/>
<path d="M57.1045 41.9795V18.4908H60.9016L60.8649 23.3318L61.4738 23.3659C61.7118 22.229 62.1009 21.2649 62.6387 20.4691C63.1766 19.6732 63.8632 19.0707 64.6986 18.6614C65.534 18.2521 66.5251 18.0474 67.6718 18.0474C69.3426 18.0474 70.7639 18.4385 71.9357 19.223C73.1053 20.0075 73.9956 21.1103 74.6044 22.5292C75.2133 23.9503 75.5177 25.6034 75.5177 27.4907C75.5177 29.2643 75.2361 30.8491 74.6754 32.2452C74.1146 33.6437 73.2655 34.7465 72.1326 35.5514C70.9973 36.3586 69.5943 36.7611 67.9235 36.7611C66.7059 36.7611 65.6782 36.5337 64.8428 36.0789C64.0074 35.6242 63.3254 34.9989 62.8013 34.203C62.2748 33.4072 61.8468 32.4863 61.5127 31.4426H60.8672C61.0114 32.0565 61.135 32.6864 61.2426 33.3344C61.3502 33.9825 61.4394 34.6191 61.5104 35.2444C61.5813 35.8697 61.618 36.4655 61.618 37.0339V41.9773H57.1045V41.9795ZM66.4541 33.2526C67.3857 33.2526 68.173 33.0093 68.8184 32.5204C69.4639 32.0315 69.9514 31.3494 70.2878 30.4739C70.622 29.5985 70.7891 28.5935 70.7891 27.4566C70.7891 26.3196 70.6151 25.2532 70.2695 24.3892C69.9239 23.5251 69.4158 22.8543 68.7475 22.3768C68.0792 21.8993 67.2895 21.6605 66.3832 21.6605C65.5958 21.6605 64.9023 21.8311 64.305 22.1722C63.7076 22.5132 63.2064 22.9612 62.8013 23.5183C62.3938 24.0754 62.0963 24.6711 61.9063 25.3078C61.7141 25.9445 61.6202 26.5698 61.6202 27.1837V27.7635C61.6202 28.2183 61.6866 28.689 61.8171 29.1778C61.9475 29.6667 62.1444 30.1556 62.4076 30.6445C62.6708 31.1333 62.9935 31.5767 63.3757 31.9747C63.758 32.3726 64.2111 32.6841 64.7376 32.9115C65.2617 33.1389 65.8362 33.2526 66.4564 33.2526H66.4541Z" fill="#3B3542"/>
<path d="M86.7236 36.7315C84.7415 36.7315 83.2836 36.2267 82.3543 35.2149C81.4228 34.203 80.9582 32.6295 80.9582 30.4944V21.938H78.2002L78.2711 18.5295H80.0976C80.7911 18.5295 81.3038 18.4272 81.6379 18.2225C81.9721 18.0179 82.1758 17.6541 82.2467 17.1311L82.677 14.5412H85.2931V18.4954H90.2369V22.0744H85.2931V30.3239C85.2931 31.1652 85.5014 31.7791 85.9202 32.1657C86.3368 32.5522 86.9639 32.7455 87.8016 32.7455C88.2548 32.7455 88.7034 32.6932 89.1451 32.5909C89.5868 32.4886 89.9988 32.3135 90.381 32.0633V36.154C89.6395 36.3814 88.9666 36.5337 88.3578 36.6133C87.7489 36.6929 87.2042 36.7315 86.7282 36.7315H86.7236Z" fill="#3B3542"/>
<path d="M118.034 36.3222V18.4931H121.831L121.76 24.6302H122.406C122.621 23.1749 122.955 21.9652 123.408 20.9989C123.861 20.0325 124.495 19.3049 125.308 18.816C126.12 18.3271 127.123 18.0838 128.318 18.0838C128.556 18.0838 128.812 18.0952 129.087 18.1179C129.361 18.1407 129.666 18.1975 130 18.2885L129.821 22.8225C129.439 22.686 129.052 22.5905 128.656 22.5314C128.263 22.4746 127.899 22.4473 127.565 22.4473C126.633 22.4473 125.827 22.6747 125.148 23.1294C124.468 23.5842 123.916 24.2254 123.5 25.0554C123.081 25.8853 122.765 26.8676 122.55 28.0045V36.3222H118.036H118.034Z" fill="#3B3542"/>
<path d="M113.102 18.8842C107.664 10.305 97.5632 5.51405 90.0468 3.00374C77.0809 -1.32565 62.2726 -0.961832 49.4188 3.99967C46.3313 5.19116 43.2643 6.67825 40.3164 8.40409C36.8397 8.0903 33.3059 8.42228 29.9185 9.39321C26.1237 10.4778 23.6953 12.4197 22.892 15.0073C22.2008 17.2402 22.7913 19.8324 24.5559 22.3382C23.3406 24.4983 22.6608 26.7335 22.5715 28.9164C22.4479 31.9292 23.4733 34.9034 25.3821 37.0771C27.3619 39.3282 30.2481 40.6516 33.148 40.6516C33.2372 40.6516 33.3242 40.6516 33.4135 40.6471C35.1392 40.5993 36.8878 40.09 38.641 39.1281C38.7829 39.2123 38.9225 39.2987 39.069 39.3783C40.472 40.1536 41.8476 40.547 43.127 40.547C43.7473 40.547 44.3446 40.4538 44.9145 40.2696C47.0545 39.5693 48.3294 37.7343 49.2014 36.2131C49.2907 36.0585 49.9018 35.7742 50.268 35.6037C53.6416 34.037 56.5278 31.5676 51.8747 20.5327C52.0258 19.7141 52.099 18.9297 52.0967 18.1634C52.0875 15.4825 51.0851 13.0359 49.3479 11.4488C48.128 10.3369 46.6609 9.71837 45.3288 9.325C47.0614 8.45184 48.8215 7.66737 50.5884 6.98522C62.7509 2.29202 76.7605 1.9464 89.0215 6.04158C101.738 10.2868 107.652 16.2966 110.376 20.5918C112.021 23.1863 113.221 27.1473 111.655 30.4785C110.543 32.8455 108.092 34.5577 105.409 34.842C102.958 35.1012 100.491 34.2189 98.6366 32.4181C96.8559 30.6899 95.9473 28.3706 96.1441 26.0536C96.4531 22.37 99.6872 19.1116 103.347 18.5477C104.821 16.9583 103.466 15.2051 102.017 15.5439C97.2702 16.6581 93.345 20.8874 92.933 25.7853C92.6583 29.0573 93.9172 32.3089 96.3867 34.7078C98.9319 37.1772 102.344 38.3869 105.755 38.0253C109.536 37.6251 113.001 35.1944 114.58 31.8314C116.349 28.0659 115.786 23.1044 113.109 18.8819L113.102 18.8842ZM25.9727 15.951C26.5632 14.05 28.9275 13.0086 30.8088 12.4697C32.3034 12.0422 33.83 11.7535 35.3658 11.6079C34.7181 12.0695 34.0795 12.5425 33.4546 13.0268C31.2071 14.7595 28.6551 16.8628 26.5517 19.4413C26.0344 18.4476 25.6019 17.147 25.9727 15.951ZM25.7918 29.0482C25.8536 27.5384 26.2839 26.1286 26.8584 24.8962C27.7945 25.7216 28.8725 26.4674 30.0558 27.0268C30.1222 28.4002 30.4815 29.7645 31.0881 31.0151C29.8338 32.0156 28.5613 33.0843 27.2383 34.2303C26.2359 32.7614 25.714 30.9219 25.7918 29.0482ZM39.3437 29.1233C39.4924 29.0346 39.6526 28.9345 39.8197 28.83C40.4148 28.4593 41.8064 27.593 42.3282 27.7385C42.4244 27.7658 42.4289 27.7772 42.4495 27.8204C42.7013 28.3593 42.406 29.8896 41.7904 31.2334C41.3463 32.202 40.6574 32.9047 39.8975 33.1639C38.8768 33.5118 37.7301 33.1002 37.1373 32.8228C36.5285 32.5408 35.9746 32.152 35.4871 31.6904C36.7596 30.7627 38.0322 29.9077 39.3437 29.1233ZM45.6492 27.3088C45.5874 27.02 45.4982 26.7403 45.3746 26.4743C44.9489 25.5647 44.1982 24.9371 43.2048 24.6575C42.8615 24.562 42.5182 24.5233 42.1772 24.5279C43.5687 23.0953 44.6536 21.3149 45.2762 19.3412C45.5302 19.3799 45.7866 19.4208 46.0429 19.4708C47.185 19.6914 48.0296 20.0075 48.6063 20.4236C48.3958 21.3536 48.0639 22.3609 47.5901 23.4864C47.0362 24.803 46.3839 26.0809 45.6515 27.3088H45.6492ZM35.558 24.7461C34.8874 24.8803 34.2145 24.8826 33.5485 24.7825C34.2214 22.7179 36.0547 20.8761 38.3778 19.9529C39.4489 19.5277 40.6368 19.2707 41.9048 19.1866C40.7329 21.9971 38.2679 24.2027 35.558 24.7461ZM35.1163 28.0273C34.6494 28.3456 34.1825 28.6708 33.7201 29.0073C33.5966 28.6799 33.4958 28.3433 33.4203 28.0023C33.9742 28.0637 34.5418 28.0728 35.1163 28.0273ZM33.3219 37.4455C32.0493 37.4751 30.7402 37.109 29.5958 36.4359C30.7379 35.4491 31.8434 34.5214 32.9282 33.6505C33.7613 34.7692 34.6997 35.897 35.78 36.9271C34.9401 37.2454 34.1184 37.4205 33.3196 37.4432L33.3219 37.4455ZM50.9798 30.7559C50.7234 31.8109 50.0574 32.1679 48.9016 32.7046C48.0067 33.1207 46.995 33.5914 46.3977 34.6305C45.5279 36.1494 44.7589 36.9498 43.9052 37.2295C43.1728 37.4682 42.3397 37.3023 41.6439 37.0453C42.0261 36.7224 42.4106 36.3814 42.7928 36.0153C45.9124 33.0411 48.485 29.387 50.2657 25.4078C51.1766 28.2888 51.1949 29.8827 50.9821 30.7559H50.9798ZM47.1667 13.8067C47.9815 14.5503 48.5354 15.644 48.7597 16.9082C48.1325 16.6672 47.4322 16.4739 46.6563 16.3239C43.2048 15.6576 39.9273 15.8827 37.1785 16.9787C33.9948 18.2452 31.5435 20.7169 30.5342 23.6388C29.8178 23.2022 29.1495 22.6724 28.5567 22.0926C30.525 19.4822 33.1411 17.3198 35.4299 15.5553C37.2174 14.1751 39.1011 12.8858 41.0419 11.7057C41.8361 11.8103 42.6258 11.9535 43.4062 12.1332C45.1915 12.547 46.3519 13.0632 47.1644 13.8067H47.1667Z" fill="#3B3542"/>
</g>
<defs>
<clipPath id="clip0_46_338">
<rect width="130" height="56" fill="white"/>
</clipPath>
</defs>
</svg>
